HIERARCHY
ROOT Hips
{
	OFFSET -3.958830 18.904000 13.208200
	CHANNELS 6 Xposition Yposition Zposition Zrotation Yrotation Xrotation 
	JOINT LHipJoint
	{
		OFFSET 0.000000 0.000000 0.000000
		CHANNELS 3 Zrotation Yrotation Xrotation
		JOINT LeftUpLeg
		{
			OFFSET 1.800000 -1.400000 0.085000
			CHANNELS 3 Zrotation Yrotation Xrotation
			JOINT LeftLeg
			{
				OFFSET 2.215000 -6.000000 0.000000
				CHANNELS 3 Zrotation Yrotation Xrotation
				JOINT LeftFoot
				{
					OFFSET 2.500000 -6.900000 0.000000
					CHANNELS 3 Zrotation Yrotation Xrotation
					JOINT LeftToeBase
					{
						OFFSET 0.200000 -0.500000 1.950000
						CHANNELS 3 Zrotation Yrotation Xrotation
						End Site
						{
							OFFSET 0.000000 0.000000 0.000000
						}
					}
				}
			}
		}
	}
	JOINT RHipJoint
	{
		OFFSET 0.000000 0.000000 0.000000
		CHANNELS 3 Zrotation Yrotation Xrotation
		JOINT RightUpLeg
		{
			OFFSET -1.800000 -1.400000 0.085000
			CHANNELS 3 Zrotation Yrotation Xrotation
			JOINT RightLeg
			{
				OFFSET -2.215000 -6.000000 0.000000
				CHANNELS 3 Zrotation Yrotation Xrotation
				JOINT RightFoot
				{
					OFFSET -2.500000 -6.900000 0.000000
					CHANNELS 3 Zrotation Yrotation Xrotation
					JOINT RightToeBase
					{
						OFFSET -0.200000 -0.500000 1.950000
						CHANNELS 3 Zrotation Yrotation Xrotation
						End Site
						{
							OFFSET 0.000000 0.000000 0.000000
						}
					}
				}
			}
		}
	}
	JOINT LowerBack
	{
		OFFSET 0.000000 0.000000 0.000000
		CHANNELS 3 Zrotation Yrotation Xrotation
		JOINT Spine
		{
			OFFSET -0.087000 1.940000 -0.288900
			CHANNELS 3 Zrotation Yrotation Xrotation
			JOINT Spine1
			{
				OFFSET 0.000000 1.950000 0.060000
				CHANNELS 3 Zrotation Yrotation Xrotation
				JOINT Neck
				{
					OFFSET 0.000000 0.000000 0.000000
					CHANNELS 3 Zrotation Yrotation Xrotation
					JOINT Neck1
					{
						OFFSET 0.000000 1.600000 0.340000
						CHANNELS 3 Zrotation Yrotation Xrotation
						JOINT Head
						{
							OFFSET 0.000000 1.667000 -0.240000
							CHANNELS 3 Zrotation Yrotation Xrotation
							End Site
							{
								OFFSET 0.000000 0.000000 0.000000
							}
						}
					}
				}
				JOINT LeftShoulder
				{
					OFFSET 0.000000 0.000000 0.000000
					CHANNELS 3 Zrotation Yrotation Xrotation
					JOINT LeftArm
					{
						OFFSET 2.700000 1.550000 -0.730000
						CHANNELS 3 Zrotation Yrotation Xrotation
						JOINT LeftForeArm
						{
							OFFSET 5.450000 0.000000 0.000000
							CHANNELS 3 Zrotation Yrotation Xrotation
							JOINT LeftHand
							{
								OFFSET 3.450000 0.000000 0.000000
								CHANNELS 3 Zrotation Yrotation Xrotation
								JOINT LeftHandIndex1
								{
									OFFSET 0.750000 0.000000 0.000000
									CHANNELS 3 Zrotation Yrotation Xrotation
									End Site
									{
										OFFSET 0.000000 0.000000 0.000000
									}
								}
							}
						}
					}
				}
				JOINT RightShoulder
				{
					OFFSET 0.000000 0.000000 0.000000
					CHANNELS 3 Zrotation Yrotation Xrotation
					JOINT RightArm
					{
						OFFSET -2.700000 1.550000 -0.730000
						CHANNELS 3 Zrotation Yrotation Xrotation
						JOINT RightForeArm
						{
							OFFSET -5.450000 0.000000 0.000000
							CHANNELS 3 Zrotation Yrotation Xrotation
							JOINT RightHand
							{
								OFFSET -3.450000 0.000000 0.000000
								CHANNELS 3 Zrotation Yrotation Xrotation
								JOINT RightHandIndex1
								{
									OFFSET -0.750000 0.000000 0.000000
									CHANNELS 3 Zrotation Yrotation Xrotation
									End Site
									{
										OFFSET 0.000000 0.000000 0.000000
									}
								}
							}
						}
					}
				}
			}
		}
	}
}
MOTION
Frames: 9
Frame Time: 0.016667
29.090610 17.075940 -23.026360 6.254164 0.006048 6.280828 -16.562903 7.289476 6.823907 -26.835462 -28.245781 -34.026472 28.513655 -12.675395 54.588590 -1.000231 11.012766 0.859221 0.531470 -0.136880 0.500010 18.366060 -5.271006 4.363497 -49.403435 -13.285132 -34.027017 29.779733 -14.176362 11.923860 -0.092811 -8.473304 1.071440 1.070500 1.235200 -0.190350 -1.777567 -2.686792 -9.167412 -10.429975 5.158997 6.522774 10.704999 3.707101 9.800314 8.604406 15.170710 -5.314848 41.945504 -61.732669 -3.151892 -6.653690 -42.146650 -10.725140 -42.586519 -7.347933 2.214135 -85.686863 -6.825774 -10.123590 0.217573 -54.760530 -9.486846 -4.248707 1.884906 0.662010 0.542570 -0.941880 0.014560 28.799136 -0.751224 3.505394 9.004231 -23.777647 -6.481307 -46.718159 -24.775260 9.093821 2.155414 -1.598567 -1.447350 1.497030 0.504550 -0.333440 
29.068800 17.078580 -23.014100 5.874362 0.187611 6.566718 -16.581069 7.249197 6.950147 -26.879276 -28.918547 -34.132691 29.290070 -13.315669 55.368314 -0.997158 11.432201 0.720411 0.372080 -0.443830 0.488150 18.353089 -5.244023 4.331621 -48.848053 -13.159711 -34.069774 30.145675 -14.230607 11.731794 0.007531 -8.476713 1.043256 0.939240 1.289570 -0.173850 -1.733916 -2.754452 -9.259872 -9.862957 4.436593 6.957165 10.448021 3.015817 9.503818 7.783240 15.056513 -5.120483 39.489471 -59.198020 -1.686858 -6.671360 -41.124690 -8.589920 -42.595140 -7.472938 2.732350 -82.938370 -3.987536 -11.950313 -9.618819 -59.683403 -4.693334 -4.273969 2.056331 0.709680 0.572380 -1.033390 -0.045110 30.346582 -0.930279 3.073551 7.875748 -23.461556 -6.321923 -46.783509 -24.248331 8.891415 2.231700 -1.557111 -1.570070 1.442930 0.599350 -0.395200 
28.895560 17.108970 -23.054620 5.786433 -1.224586 7.122820 -16.572804 7.367490 7.046775 -23.650290 -29.616379 -37.559840 27.585694 -12.189822 58.819131 -0.637416 11.914580 0.784443 0.237020 -0.853870 0.639330 18.340738 -5.303575 4.277567 -45.739663 -12.510740 -37.894700 28.804390 -14.562688 14.225741 -0.010268 -8.201233 1.126220 0.574700 1.327930 -0.201240 -1.798152 -2.838462 -9.306062 -10.336528 3.652679 7.488058 9.743994 2.009790 8.874660 5.550919 13.975940 -4.834856 31.770394 -52.194702 3.417171 -7.860330 -38.007290 -2.996780 -39.729701 -7.313764 3.028837 -75.373473 0.399270 -12.956525 -35.010544 -65.495811 11.750971 -4.139942 2.582889 0.715710 0.457900 -1.075010 0.078710 31.211452 -0.899044 2.863311 8.342252 -22.240173 -6.008117 -42.658249 -25.781223 9.002052 2.516963 -1.518119 -1.607590 1.409150 0.554740 -0.427950 
28.782710 17.103500 -23.045680 4.876385 -1.790980 9.878164 -16.456536 6.878756 7.403623 -20.393197 -31.802224 -42.824583 26.933411 -12.170880 62.906261 0.077472 12.616175 0.761861 0.399210 -1.082960 0.957950 18.510026 -5.281698 4.312517 -43.268750 -12.211927 -42.019182 28.763184 -14.734062 15.388945 -0.000997 -8.198002 1.080436 0.248900 1.263050 0.033560 -2.271735 -2.128652 -9.445889 -6.849404 1.209308 5.178748 5.931613 -0.195557 7.855656 4.037876 11.813783 -4.333721 24.815754 -41.910423 6.423191 -6.845430 -32.855690 4.778120 -35.863030 -5.391648 2.501405 -58.642079 7.617238 -9.388822 -75.925227 -60.904276 37.428156 -4.137293 3.639499 0.417800 0.402860 -1.197090 0.247020 29.634554 -2.657114 2.207364 13.319271 -20.745872 -5.782289 -41.104362 -24.463089 8.616957 2.823700 -2.074495 -1.288820 0.896630 0.313730 -0.396010 
28.640860 17.164120 -23.002990 3.899736 -3.038159 11.108016 -16.486737 6.988101 7.391367 -16.914843 -32.034439 -46.274015 25.463876 -11.276388 66.225212 0.019435 13.083768 0.609087 0.851370 -0.570020 1.378630 18.463388 -5.327919 4.191584 -39.996481 -10.709431 -44.512380 28.186749 -14.320466 16.515265 -0.079390 -8.057026 1.015289 0.592970 1.273410 0.130730 -2.218222 -2.127734 -9.292453 -6.263176 1.100140 3.800047 3.997810 -0.679237 5.171895 6.013537 13.430128 -2.408120 29.619630 -42.766012 2.222554 -11.602780 -29.960710 4.013180 -39.727459 -4.558001 -0.449915 -22.606628 12.638534 -1.132182 -102.123128 -41.302987 39.730204 -3.974158 4.230295 0.236570 0.499470 -1.159880 0.353760 30.403056 -5.157566 1.236501 18.810281 -22.538057 -5.418483 -43.024960 -21.611762 7.554209 2.701392 -2.419245 -1.178580 0.983040 0.104050 -0.388430 
28.471590 17.190010 -22.984000 2.834885 -5.583344 12.596613 -16.523846 7.091538 7.377879 -11.315437 -32.208233 -52.285010 22.232201 -8.659028 71.885623 -0.155753 13.856637 0.250380 1.027630 -0.339420 1.429170 18.420920 -5.322655 4.088863 -35.993082 -8.772371 -48.814535 26.732190 -14.253424 19.104024 -0.081048 -7.900523 0.979234 0.847310 1.325690 0.228110 -2.223190 -2.180851 -9.089556 -5.985528 1.784785 2.153335 3.945481 -0.342728 3.666558 7.258900 14.231174 -0.576526 31.823601 -42.757679 0.363376 -12.472800 -28.905320 2.099910 -39.483331 -1.385535 -2.227399 -9.508925 15.929868 0.914791 -102.640860 -41.431486 39.688604 -3.930322 4.428450 0.218520 0.601040 -1.157610 0.384870 28.324216 -8.985823 -0.562423 27.464611 -23.129498 -6.645785 -47.013978 -17.139775 6.693166 2.421745 -2.614123 -1.197320 1.059070 0.141070 -0.415480 
28.286530 17.290560 -22.895490 2.745849 -8.461904 12.058135 -16.594282 7.573466 7.237172 -7.994189 -30.842725 -54.108621 19.423317 -5.477367 74.467334 -0.243750 13.892611 0.096043 0.899200 -0.427190 1.520680 18.254983 -5.589306 3.939812 -32.786522 -6.465959 -49.376355 25.112799 -13.508263 20.153771 -0.037439 -7.282020 1.198281 0.771760 1.004480 0.157570 -1.961990 -2.411758 -9.024768 -7.512487 3.168427 4.907815 6.026829 1.384453 -2.745430 8.139863 15.164428 1.593484 35.443134 -46.269621 -1.925156 -13.333060 -27.983180 0.551180 -38.255277 4.141370 -4.432525 -5.494196 16.899040 0.517540 -73.642636 -48.676265 30.206567 -3.752132 4.040645 0.500710 0.497040 -0.944640 0.143100 26.548995 -14.110537 -2.212299 37.095088 -27.386608 -10.121044 -55.486349 -9.335295 5.534837 2.313113 -2.439452 -1.253890 0.956960 0.122250 -0.611350 
28.112330 17.391120 -22.792980 1.564478 -11.198978 11.668053 -16.665793 8.122820 7.163122 -3.613944 -29.372473 -56.228725 16.244549 -2.133186 76.734980 -0.630971 13.753022 -0.179266 0.907940 -0.045730 1.580330 18.061954 -5.911055 3.770000 -28.993372 -4.156386 -48.859907 24.313600 -12.821782 20.487962 -0.119238 -6.646849 1.426598 1.006990 0.548450 0.010230 -1.630059 -2.741004 -9.124347 -6.595615 3.694759 8.476849 5.698675 3.243078 -11.340722 11.830929 16.320160 4.006153 43.973755 -54.720230 -8.000834 -20.208710 -26.922500 -3.930310 -37.377027 10.263116 -7.909473 0.156481 15.285965 2.696655 -66.400491 -48.570793 28.352032 -3.603236 3.528461 0.803090 0.456890 -0.610580 -0.177900 20.153831 -21.388081 -3.194762 54.190131 -32.595846 -16.928848 -65.946280 4.046397 0.226699 1.829442 -2.176640 -1.282740 1.001650 0.124830 -0.864470 
27.956670 17.492140 -22.668010 0.563964 -15.467275 11.486833 -16.812686 8.846210 7.075920 0.779729 -27.597262 -58.123037 11.855031 2.313653 78.095196 -0.865240 13.863372 -0.456633 1.021880 0.182860 1.791760 17.806892 -6.031384 3.561775 -24.928464 -1.788863 -48.391926 22.722428 -11.906369 20.994845 -0.222105 -5.866661 1.650185 1.112300 0.222910 0.028910 -1.121604 -3.801088 -9.139402 -7.195342 4.275215 11.096820 7.047149 5.826693 -20.476365 15.081440 16.987766 8.085787 50.488227 -61.324941 -12.956377 -23.647920 -26.602550 -9.601460 -35.065385 18.132625 -12.120967 1.643552 11.343634 4.903317 -66.057227 -43.626685 27.217422 -3.533501 3.160686 1.099620 0.334640 -0.277100 -0.336580 14.304374 -30.742366 -4.790987 63.349624 -39.161072 -21.547828 -73.061325 17.307567 -6.408278 1.635441 -1.851392 -1.253830 1.023490 0.088340 -1.023000 
